<svg version="1.1" id="Layer_1" xmlns="http://www.w3.org/2000/svg" xmlns:xlink="http://www.w3.org/1999/xlink" x="0px" y="0px"
	 width="100%" viewBox="0 0 512 512" enable-background="new 0 0 512 512" xml:space="preserve">
<path fill="#FFFFFF" opacity="1.000000" stroke="none" 
	d="
M1.000000,180.000000 
	C1.000000,120.000000 1.000000,60.500000 1.000000,1.000000 
	C171.666672,1.000000 342.333344,1.000000 513.000000,1.000000 
	C513.000000,171.666672 513.000000,342.333344 513.000000,513.000000 
	C342.333344,513.000000 171.666672,513.000000 1.000000,513.000000 
	C1.000000,402.166656 1.000000,291.333344 1.000000,180.000000 
M496.001556,91.042877 
	C495.379639,87.857986 495.100006,84.558159 494.075928,81.508316 
	C489.894226,69.054771 483.155731,58.754864 472.501556,50.265778 
	C462.382202,42.202797 451.747803,37.225552 438.592407,35.255493 
	C436.771301,35.171478 434.950256,35.014778 433.129120,35.014118 
	C391.546509,34.999039 349.963928,34.986095 308.381317,35.006939 
	C291.252228,35.015522 274.123169,35.103600 256.065643,35.025909 
	C198.087723,35.017273 140.109787,34.986172 82.131958,35.047840 
	C78.033066,35.052200 73.841934,35.311535 69.851097,36.177612 
	C37.842899,43.123917 16.074808,69.620934 16.027611,103.012711 
	C15.934125,169.154083 15.972099,235.295700 16.043224,301.437103 
	C16.050323,308.039429 16.597946,314.644806 17.000799,321.242310 
	C18.293739,342.416656 29.283052,357.966003 45.936382,369.911133 
	C56.458206,377.458282 68.756592,380.237885 82.052116,381.307526 
	C82.052116,413.399963 82.052116,445.376831 82.052116,477.696503 
	C83.430260,477.136932 84.270050,476.961060 84.917397,476.509399 
	C112.450356,457.298065 139.976181,438.076508 167.480072,418.823578 
	C182.379776,408.393738 197.307129,398.001007 212.083023,387.397797 
	C218.268265,382.959229 224.541245,380.168884 232.525742,380.838562 
	C240.624878,381.517822 248.833130,380.895935 257.926025,380.970978 
	C316.784851,380.979706 375.643677,380.995636 434.502472,380.957306 
	C436.039368,380.956329 437.575867,380.363129 439.952240,380.007446 
	C443.135773,379.386444 446.405640,379.045532 449.487762,378.095520 
	C462.204315,374.176025 472.441559,367.194824 481.446014,356.889160 
	C491.005463,345.948242 494.948669,333.862793 496.674347,319.714172 
	C496.723602,318.489075 496.772827,317.264008 496.957123,315.105499 
	C496.967316,244.387253 496.978180,173.669006 496.980804,102.950768 
	C496.980835,101.955750 496.877350,100.960732 496.962769,99.116631 
	C496.655487,96.708160 496.348236,94.299690 496.001556,91.042877 
z"/>
<path fill="#FFDB2D" opacity="1.000000" stroke="none" 
	d="
M256.993591,380.843933 
	C248.833130,380.895935 240.624878,381.517822 232.525742,380.838562 
	C224.541245,380.168884 218.268265,382.959229 212.083023,387.397797 
	C197.307129,398.001007 182.379776,408.393738 167.480072,418.823578 
	C139.976181,438.076508 112.450356,457.298065 84.917397,476.509399 
	C84.270050,476.961060 83.430260,477.136932 82.052116,477.696503 
	C82.052116,445.376831 82.052116,413.399963 82.052116,381.307526 
	C68.756592,380.237885 56.458206,377.458282 45.936382,369.911133 
	C29.283052,357.966003 18.293739,342.416656 17.000799,321.242310 
	C16.597946,314.644806 16.050323,308.039429 16.043224,301.437103 
	C15.972099,235.295700 15.934125,169.154083 16.027611,103.012711 
	C16.074808,69.620934 37.842899,43.123917 69.851097,36.177612 
	C73.841934,35.311535 78.033066,35.052200 82.131958,35.047840 
	C140.109787,34.986172 198.087723,35.017273 256.529205,35.301567 
	C256.992767,35.577225 256.998627,35.998936 256.992065,36.467625 
	C257.002502,69.531921 257.019531,102.127533 256.574585,134.810898 
	C219.217819,134.898651 182.323044,134.898651 145.403076,134.898651 
	C145.403076,144.668854 145.403076,153.589783 145.403076,163.119614 
	C182.792191,163.119614 219.896072,163.119614 256.992767,163.580734 
	C257.002563,174.268951 257.019562,184.496048 256.574585,194.810898 
	C219.217819,194.898651 182.323044,194.898651 145.403076,194.898651 
	C145.403076,204.668854 145.403076,213.589783 145.403076,223.119614 
	C182.792191,223.119614 219.896072,223.119614 256.992767,223.580734 
	C257.003143,234.267944 257.020721,244.494049 256.576324,254.809052 
	C219.219193,254.897980 182.324036,254.897980 145.402786,254.897980 
	C145.402786,264.668152 145.402786,273.589142 145.402786,283.119598 
	C182.791809,283.119598 219.895889,283.119598 256.992767,283.580688 
	C256.989685,316.028290 256.993774,348.014740 256.995178,380.211884 
	C256.992432,380.422546 256.993591,380.843933 256.993591,380.843933 
z"/>
<path fill="#FFAA20" opacity="1.000000" stroke="none" 
	d="
M257.036560,134.723145 
	C257.019531,102.127533 257.002502,69.531921 257.460846,36.467979 
	C318.327911,35.984734 378.719635,35.969818 439.111328,35.954906 
	C451.747803,37.225552 462.382202,42.202797 472.501556,50.265778 
	C483.155731,58.754864 489.894226,69.054771 494.075928,81.508316 
	C495.100006,84.558159 495.379639,87.857986 496.008057,91.899559 
	C496.283783,95.159401 496.552979,97.562553 496.822174,99.965714 
	C496.877350,100.960732 496.980835,101.955750 496.980804,102.950768 
	C496.978180,173.669006 496.967316,244.387253 496.648499,315.833221 
	C496.241119,317.744598 496.142334,318.928284 496.043549,320.111938 
	C494.948669,333.862793 491.005463,345.948242 481.446014,356.889160 
	C472.441559,367.194824 462.204315,374.176025 449.487762,378.095520 
	C446.405640,379.045532 443.135773,379.386444 439.056030,380.011475 
	C377.772491,380.010773 317.385193,380.006012 256.997894,380.001221 
	C256.993774,348.014740 256.989685,316.028290 256.978149,283.509888 
	C256.970764,282.977997 256.931488,282.838837 257.400879,282.902405 
	C294.621246,282.965973 331.372192,282.965973 368.225739,282.965973 
	C368.225739,273.408234 368.225739,264.360870 368.225739,254.863632 
	C359.143036,254.863632 350.507996,254.847244 341.873016,254.866623 
	C313.569916,254.930176 285.266785,255.006744 256.990112,254.990387 
	C257.016541,254.902481 257.038300,254.720139 257.038300,254.720139 
	C257.020721,244.494049 257.003143,234.267944 256.978149,223.509918 
	C256.970764,222.977982 256.931427,222.838837 257.400818,222.902390 
	C294.621124,222.965942 331.371979,222.965942 368.225525,222.965942 
	C368.225525,213.408966 368.225525,204.361832 368.225525,194.867493 
	C359.808380,194.867493 351.839233,194.852585 343.870117,194.870178 
	C314.900940,194.934128 285.931763,195.008987 256.988922,194.992203 
	C257.015259,194.904678 257.036560,194.723145 257.036560,194.723145 
	C257.019562,184.496048 257.002563,174.268951 256.978149,163.509918 
	C256.970764,162.977982 256.931427,162.838837 257.400818,162.902390 
	C294.615021,162.965942 331.359833,162.965942 368.199341,162.965942 
	C368.199341,153.436264 368.199341,144.395248 368.199341,134.867493 
	C359.766846,134.867493 351.806580,134.852585 343.846344,134.870163 
	C314.885101,134.934128 285.923828,135.008987 256.988922,134.992203 
	C257.015259,134.904678 257.036560,134.723145 257.036560,134.723145 
z"/>
<path fill="#FFBA24" opacity="1.000000" stroke="none" 
	d="
M438.851868,35.605202 
	C378.719635,35.969818 318.327911,35.984734 257.467407,35.999290 
	C256.998627,35.998936 256.992767,35.577225 256.993439,35.366371 
	C274.123169,35.103600 291.252228,35.015522 308.381317,35.006939 
	C349.963928,34.986095 391.546509,34.999039 433.129120,35.014118 
	C434.950256,35.014778 436.771301,35.171478 438.851868,35.605202 
z"/>
<path fill="#FFBB25" opacity="1.000000" stroke="none" 
	d="
M256.995178,380.211884 
	C317.385193,380.006012 377.772491,380.010773 438.636169,380.030823 
	C437.575867,380.363129 436.039368,380.956329 434.502472,380.957306 
	C375.643677,380.995636 316.784851,380.979706 257.459808,380.907471 
	C256.993591,380.843933 256.992432,380.422546 256.995178,380.211884 
z"/>
<path fill="#FFB323" opacity="1.000000" stroke="none" 
	d="
M496.892456,99.541168 
	C496.552979,97.562553 496.283783,95.159401 496.027771,92.323730 
	C496.348236,94.299690 496.655487,96.708160 496.892456,99.541168 
z"/>
<path fill="#FFB323" opacity="1.000000" stroke="none" 
	d="
M496.358948,319.913055 
	C496.142334,318.928284 496.241119,317.744598 496.580994,316.299927 
	C496.772827,317.264008 496.723602,318.489075 496.358948,319.913055 
z"/>
<path fill="#FFFFFF" opacity="1.000000" stroke="none" 
	d="
M256.985352,163.048798 
	C219.896072,163.119614 182.792191,163.119614 145.403076,163.119614 
	C145.403076,153.589783 145.403076,144.668854 145.403076,134.898651 
	C182.323044,134.898651 219.217819,134.898651 256.574585,134.810898 
	C257.036560,134.723145 257.015259,134.904678 256.993744,135.455048 
	C256.958618,144.949905 256.945038,153.894363 256.931427,162.838837 
	C256.931427,162.838837 256.970764,162.977982 256.985352,163.048798 
z"/>
<path fill="#FFFFFF" opacity="1.000000" stroke="none" 
	d="
M256.985352,223.048798 
	C219.896072,223.119614 182.792191,223.119614 145.403076,223.119614 
	C145.403076,213.589783 145.403076,204.668854 145.403076,194.898651 
	C182.323044,194.898651 219.217819,194.898651 256.574585,194.810898 
	C257.036560,194.723145 257.015259,194.904678 256.993713,195.455048 
	C256.958618,204.949905 256.945007,213.894363 256.931396,222.838837 
	C256.931427,222.838837 256.970764,222.977982 256.985352,223.048798 
z"/>
<path fill="#FFFFFF" opacity="1.000000" stroke="none" 
	d="
M256.985352,283.048798 
	C219.895889,283.119598 182.791809,283.119598 145.402786,283.119598 
	C145.402786,273.589142 145.402786,264.668152 145.402786,254.897980 
	C182.324036,254.897980 219.219193,254.897980 256.576324,254.809052 
	C257.038300,254.720139 257.016541,254.902481 256.994568,255.453369 
	C256.958862,264.949097 256.945160,273.893982 256.931488,282.838837 
	C256.931488,282.838837 256.970764,282.977997 256.985352,283.048798 
z"/>
<path fill="#E1E1E3" opacity="1.000000" stroke="none" 
	d="
M257.400818,222.902390 
	C256.945007,213.894363 256.958618,204.949905 256.967407,195.542572 
	C285.931763,195.008987 314.900940,194.934128 343.870117,194.870178 
	C351.839233,194.852585 359.808380,194.867493 368.225525,194.867493 
	C368.225525,204.361832 368.225525,213.408966 368.225525,222.965942 
	C331.371979,222.965942 294.621124,222.965942 257.400818,222.902390 
z"/>
<path fill="#E1E1E3" opacity="1.000000" stroke="none" 
	d="
M257.400879,282.902405 
	C256.945160,273.893982 256.958862,264.949097 256.968140,255.541275 
	C285.266785,255.006744 313.569916,254.930176 341.873016,254.866623 
	C350.507996,254.847244 359.143036,254.863632 368.225739,254.863632 
	C368.225739,264.360870 368.225739,273.408234 368.225739,282.965973 
	C331.372192,282.965973 294.621246,282.965973 257.400879,282.902405 
z"/>
<path fill="#E1E1E3" opacity="1.000000" stroke="none" 
	d="
M257.400818,162.902390 
	C256.945038,153.894363 256.958618,144.949905 256.967407,135.542572 
	C285.923828,135.008987 314.885101,134.934128 343.846344,134.870163 
	C351.806580,134.852585 359.766846,134.867493 368.199341,134.867493 
	C368.199341,144.395248 368.199341,153.436264 368.199341,162.965942 
	C331.359833,162.965942 294.615021,162.965942 257.400818,162.902390 
z"/>
</svg>