<?xml version="1.0" encoding="UTF-8"?>
<svg version="1.1" xmlns="http://www.w3.org/2000/svg" width="512" height="512">
<path d="M0 0 C1.20616466 -0.01171117 1.20616466 -0.01171117 2.43669629 -0.02365893 C12.10486996 0.06147755 20.15479235 3.58694814 27.15167236 10.26313782 C35.57244971 19.99966162 37.91451682 30.14480426 37.15704346 42.77900696 C36.28204059 51.37093285 33.65432705 59.72878794 31.40167236 68.03657532 C30.79337256 70.34190939 30.18734183 72.64784312 29.58331299 74.95429993 C28.56612848 78.83291403 27.54712462 82.7109581 26.51824951 86.58648682 C23.22986474 98.97715009 20.02887915 111.38971827 16.83917236 123.80610657 C16.30547177 125.88245947 15.77173957 127.95880425 15.23797607 130.03514099 C14.43120062 133.1736821 13.62445669 136.31223128 12.81783295 139.45081139 C10.20787694 149.60548762 7.59454196 159.75928383 4.97262573 169.91087914 C4.49930106 171.74448462 4.02651487 173.57822922 3.55435181 175.41213417 C2.01912375 181.37443911 0.4684186 187.33247493 -1.09832764 193.28657532 C-1.35229309 194.25456432 -1.60625854 195.22255333 -1.86791992 196.21987534 C-2.65727893 199.21654939 -3.45562854 202.21069242 -4.25653076 205.20429993 C-4.49848427 206.12501817 -4.74043777 207.04573641 -4.98972321 207.9943552 C-7.94086101 218.93144168 -12.76356769 226.6386295 -22.09832764 233.28657532 C-36.52933567 241.26525764 -53.0991168 238.32843754 -68.82098389 236.53657532 C-70.46277092 236.35635246 -72.10465465 236.17700857 -73.74662781 235.99848938 C-78.01728248 235.53233774 -82.28681185 235.0566439 -86.55609131 234.57807922 C-93.41749143 233.81019922 -100.28032419 233.05536809 -107.14355278 232.30403137 C-109.52304039 232.04185777 -111.90189156 231.77441787 -114.28071594 231.50630188 C-115.74472324 231.34435913 -117.20874723 231.18256725 -118.67279053 231.02095032 C-119.94135391 230.87883118 -121.2099173 230.73671204 -122.516922 230.59028625 C-126.06333464 230.2895428 -129.54110362 230.23279528 -133.09832764 230.28657532 C-132.73481201 231.4365802 -132.37129639 232.58658508 -131.99676514 233.7714386 C-130.64633726 238.05147302 -129.30719278 242.33496875 -127.97137451 246.61958313 C-127.39240233 248.4711284 -126.81040195 250.32172966 -126.22528076 252.17134094 C-125.38324886 254.83491125 -124.55227783 257.50172153 -123.72332764 260.16938782 C-123.46084229 260.9914975 -123.19835693 261.81360718 -122.92791748 262.66062927 C-121.60158139 266.96871967 -120.61209165 270.7272688 -121.09832764 275.28657532 C-124.25622237 280.86552269 -124.25622237 280.86552269 -127.09832764 282.28657532 C-130.67669631 283.26988737 -133.50108948 283.21833417 -137.09832764 282.28657532 C-141.53902863 279.23623666 -145.3730141 275.68183731 -149.27947998 271.98432922 C-152.15626613 269.29907138 -155.15906828 266.7676274 -158.16082764 264.22407532 C-159.32920915 263.22325491 -160.49718012 262.221955 -161.66473389 261.22016907 C-165.49755476 257.94091781 -169.34986812 254.68496299 -173.20404053 251.43086243 C-177.1843698 248.06743299 -181.14450589 244.68110525 -185.09832764 241.28657532 C-186.8453827 239.78913438 -188.59267853 238.29197482 -190.34002686 236.7948761 C-191.52755725 235.77619201 -192.71405613 234.75630439 -193.89959717 233.73530579 C-195.65043107 232.22813238 -197.40523547 230.72570122 -199.16082764 229.22407532 C-199.68483154 228.77096985 -200.20883545 228.31786438 -200.74871826 227.85102844 C-206.3318361 223.09129409 -210.48247199 220.88309395 -217.82098389 220.29438782 C-219.34510308 220.14496051 -220.86919063 219.99521025 -222.39324951 219.84516907 C-224.76635518 219.62626317 -227.13978891 219.41339566 -229.51409912 219.20796204 C-243.71804297 217.95008111 -256.20930274 215.53610261 -266.09832764 204.28657532 C-272.40965138 195.52348421 -274.35619602 184.88433767 -276.18304443 174.44697571 C-276.36880035 173.41289581 -276.55455627 172.37881592 -276.74594116 171.31340027 C-277.35309351 167.92148361 -277.95104703 164.52803683 -278.54754639 161.13423157 C-278.96918358 158.75022339 -279.39088161 156.36622598 -279.81263733 153.98223877 C-280.69377653 148.99097159 -281.56951151 143.99878767 -282.44232178 139.00605774 C-283.55351888 132.65607067 -284.68514236 126.30991167 -285.82188702 119.9644556 C-286.70025828 115.04079624 -287.56388649 110.11462968 -288.42368507 105.18769646 C-288.83417761 102.84956328 -289.24990805 100.51234263 -289.67130089 98.17614937 C-296.74033088 58.88346973 -296.74033088 58.88346973 -289.09832764 47.28657532 C-280.23823575 35.25056455 -270.97603519 30.99558461 -256.57577991 28.66217589 C-247.84537683 27.3385805 -239.06372586 26.38370548 -230.29266357 25.37568665 C-227.9286431 25.09983584 -225.56467665 24.82352168 -223.20075989 24.54678345 C-216.82310137 23.80179434 -210.44462166 23.06408626 -204.0658865 22.32837892 C-200.07002524 21.86739443 -196.0744037 21.40435596 -192.07883453 20.9408474 C-178.82825602 19.40391809 -165.57714313 17.87171851 -152.32530722 16.34566835 C-151.61376822 16.26372869 -150.90222921 16.18178902 -150.16912842 16.09736633 C-149.10049068 15.97430527 -149.10049068 15.97430527 -148.01026431 15.84875812 C-136.47125467 14.5196659 -124.93359578 13.17922309 -113.39650127 11.83361737 C-101.50012308 10.44624159 -89.60277276 9.06748314 -77.70438027 7.69748706 C-71.04444612 6.93047894 -64.38498003 6.15985648 -57.72649384 5.38036537 C-51.45991495 4.64706806 -45.19214545 3.92492173 -38.92333794 3.21093559 C-36.63820998 2.94882985 -34.35351312 2.68292981 -32.06933022 2.4127121 C-21.38027651 1.15036257 -10.77224047 0.0662238 0 0 Z " fill="#FE9D00" transform="translate(384.09832763671875,127.71342468261719)"/>
<path d="M0 0 C1.01790619 0.00215515 2.03581238 0.0043103 3.08456421 0.00653076 C17.69363523 0.05620146 32.02575853 0.30709809 46.375 3.3125 C47.34985352 3.51117676 48.32470703 3.70985352 49.32910156 3.91455078 C97.7109774 14.03517194 141.69928269 35.9516877 177.375 70.3125 C178.3640332 71.26068604 178.3640332 71.26068604 179.37304688 72.22802734 C188.86130305 81.37247479 197.6012044 90.66984009 205.375 101.3125 C206.23306152 102.46355017 207.09113451 103.61459177 207.94921875 104.765625 C213.98736829 112.95680614 219.34595521 121.47054105 224.375 130.3125 C224.73948242 130.94430176 225.10396484 131.57610352 225.47949219 132.22705078 C247.08534998 169.97532572 256.85198095 212.74189997 256.6875 255.9375 C256.68534485 256.95540619 256.6831897 257.97331238 256.68096924 259.02206421 C256.63129854 273.63113523 256.38040191 287.96325853 253.375 302.3125 C253.07698486 303.77478027 253.07698486 303.77478027 252.77294922 305.26660156 C242.65232806 353.6484774 220.7358123 397.63678269 186.375 433.3125 C185.74287598 433.97185547 185.11075195 434.63121094 184.45947266 435.31054688 C175.31502521 444.79880305 166.01765991 453.5387044 155.375 461.3125 C154.22394983 462.17056152 153.07290823 463.02863451 151.921875 463.88671875 C143.73224019 469.92427396 135.22961724 475.30707302 126.375 480.3125 C125.66778809 480.7146875 124.96057617 481.116875 124.23193359 481.53125 C101.09654164 494.5566741 75.92537591 503.30551461 49.9375 508.625 C49.21860596 508.77235596 48.49971191 508.91971191 47.7590332 509.0715332 C33.08339502 511.86090125 18.55831162 512.66142619 3.64770508 512.62817383 C0.70811513 512.6250221 -2.2304558 512.64854926 -5.16992188 512.67382812 C-18.54306192 512.71848737 -31.43916711 511.51301542 -44.625 509.3125 C-46.33055054 509.03031616 -46.33055054 509.03031616 -48.07055664 508.74243164 C-91.33802759 500.97044532 -132.38793216 480.98345309 -165.625 452.3125 C-166.37007813 451.67828125 -167.11515625 451.0440625 -167.8828125 450.390625 C-181.38779833 438.57948485 -194.05918743 425.82889772 -204.625 411.3125 C-205.48149066 410.16255169 -206.33826433 409.01281411 -207.1953125 407.86328125 C-213.23534209 399.67315742 -218.61867614 391.16870382 -223.625 382.3125 C-224.0271875 381.60528809 -224.429375 380.89807617 -224.84375 380.16943359 C-237.8691741 357.03404164 -246.61801461 331.86287591 -251.9375 305.875 C-252.08485596 305.15610596 -252.23221191 304.43721191 -252.3840332 303.6965332 C-255.35789088 288.05024391 -255.99800362 272.57681954 -255.9375 256.6875 C-255.93534485 255.66959381 -255.9331897 254.65168762 -255.93096924 253.60293579 C-255.88129854 238.99386477 -255.63040191 224.66174147 -252.625 210.3125 C-252.42632324 209.33764648 -252.22764648 208.36279297 -252.02294922 207.35839844 C-241.90232806 158.9765226 -219.9858123 114.98821731 -185.625 79.3125 C-184.99287598 78.65314453 -184.36075195 77.99378906 -183.70947266 77.31445312 C-174.56502521 67.82619695 -165.26765991 59.0862956 -154.625 51.3125 C-153.47394983 50.45443848 -152.32290823 49.59636549 -151.171875 48.73828125 C-142.98224019 42.70072604 -134.47961724 37.31792698 -125.625 32.3125 C-124.91778809 31.9103125 -124.21057617 31.508125 -123.48193359 31.09375 C-100.34654164 18.0683259 -75.17537591 9.31948539 -49.1875 4 C-48.46860596 3.85264404 -47.74971191 3.70528809 -47.0090332 3.5534668 C-31.36274391 0.57960912 -15.88931954 -0.06050362 0 0 Z M-153.625 81.3125 C-154.93277305 82.44299144 -156.2451671 83.56816302 -157.5625 84.6875 C-166.45983022 92.47266394 -174.40708735 100.95368105 -181.625 110.3125 C-182.04749023 110.8585791 -182.46998047 111.4046582 -182.90527344 111.96728516 C-207.06121294 143.40176742 -222.58051922 179.3114776 -229.625 218.3125 C-229.85832031 219.570625 -230.09164062 220.82875 -230.33203125 222.125 C-239.7660178 281.850958 -222.83558706 343.57457517 -188.35546875 392.53515625 C-175.05363352 410.72631469 -159.50259979 427.6948487 -141.31201172 441.06982422 C-139.65398451 442.29114961 -138.01623502 443.53627916 -136.37890625 444.78515625 C-126.39129226 452.28143108 -115.60478392 458.39734977 -104.625 464.3125 C-103.92600586 464.69148438 -103.22701172 465.07046875 -102.50683594 465.4609375 C-81.40379218 476.693373 -57.09578547 483.44520524 -33.625 487.3125 C-32.52430176 487.50513428 -32.52430176 487.50513428 -31.40136719 487.70166016 C26.97454541 497.56898344 88.84521859 479.99357738 136.625 446.375 C156.08195447 432.27928395 174.53281851 414.99105995 188.375 395.3125 C188.78862793 394.72726562 189.20225586 394.14203125 189.62841797 393.5390625 C192.66231901 389.20392141 195.55302853 384.78803992 198.375 380.3125 C198.79136719 379.65411133 199.20773437 378.99572266 199.63671875 378.31738281 C222.35675397 342.01775731 233.85106075 299.7063346 233.75 257 C233.74945618 256.12876495 233.74891235 255.25752991 233.74835205 254.3598938 C233.64284575 217.37993363 225.02445534 180.92907439 207.375 148.3125 C206.79878906 147.22243652 206.79878906 147.22243652 206.2109375 146.11035156 C190.79699132 116.96059045 168.67922254 90.20757221 142.078125 70.57128906 C140.41465069 69.34180604 138.76972448 68.09033788 137.125 66.8359375 C62.21139947 10.60055681 -44.72056617 8.44414387 -153.625 81.3125 Z " fill="#FF9D00" transform="translate(255.625,-0.3125)"/>
<path d="M0 0 C1 2 1 2 0.44140625 3.70703125 C0.15136719 4.40183594 -0.13867188 5.09664062 -0.4375 5.8125 C-4.32023306 17.00730885 -1.40498414 29.11728107 0.6875 40.4375 C0.96257452 41.97219214 1.23639826 43.50710893 1.5090332 45.04223633 C1.92635939 47.39064335 2.34455702 49.73885943 2.76701355 52.08634949 C4.36022934 60.94301511 5.80999207 69.82221903 7.26245117 78.70288086 C8.25783789 84.7318703 9.31676902 90.74361483 10.4609375 96.74609375 C11.54588164 102.44084212 12.53751537 108.14470517 13.46484375 113.8671875 C13.71019166 115.36459887 13.95563455 116.86199468 14.20117188 118.359375 C14.57297188 120.62905284 14.94129146 122.89904239 15.29956055 125.17089844 C17.52007902 139.19679963 20.07565404 150.14357889 31 160 C37.49002274 164.55796005 44.34903605 167.01344477 52.2409668 167.7902832 C53.46476044 167.91433029 54.68855408 168.03837738 55.94943237 168.16618347 C57.28268826 168.29444765 58.61595057 168.42264497 59.94921875 168.55078125 C61.34749042 168.69046643 62.74569275 168.83084725 64.14382935 168.97187805 C67.1137365 169.27038918 70.08399108 169.56502095 73.05459595 169.85650635 C80.06075201 170.54449816 87.0647619 171.25379214 94.06876945 171.96327209 C95.62387821 172.12077209 97.17900957 172.27804895 98.73416328 172.43510437 C111.44078781 173.71909665 124.13125414 175.10915198 136.8125 176.625 C153.46379008 178.6087911 170.12778542 180.4361817 186.80541992 182.18481445 C188.75049147 182.38880425 190.69555985 182.59282419 192.640625 182.796875 C194.06910515 182.94663033 194.06910515 182.94663033 195.52644348 183.09941101 C201.93221761 183.7739352 208.33394834 184.4797561 214.734375 185.203125 C216.42593032 185.39261903 218.11749902 185.58199357 219.80908203 185.77124023 C222.17253244 186.0356709 224.53562389 186.30210171 226.89788818 186.57693481 C240.08263228 188.11043246 252.23758051 189.29676648 265 185 C260.78770175 193.79088331 254.0514762 199.64940038 245.04296875 203.30859375 C232.70200721 207.48517155 217.98789005 204.69865413 205.27734375 203.25 C203.63555672 203.06977714 201.99367299 202.89043325 200.35169983 202.71191406 C196.08104516 202.24576242 191.81151579 201.77006858 187.54223633 201.29150391 C180.6808362 200.5236239 173.81800344 199.76879278 166.95477486 199.01745605 C164.57528725 198.75528245 162.19643607 198.48784256 159.81761169 198.21972656 C158.3536044 198.05778382 156.88958041 197.89599193 155.42553711 197.734375 C154.15697372 197.59225586 152.88841034 197.45013672 151.58140564 197.30371094 C148.034993 197.00296748 144.55722401 196.94621996 141 197 C141.36351562 198.15000488 141.72703125 199.30000977 142.1015625 200.48486328 C143.45199037 204.7648977 144.79113486 209.04839343 146.12695312 213.33300781 C146.70592531 215.18455309 147.28792569 217.03515435 147.87304688 218.88476562 C148.71507878 221.54833594 149.5460498 224.21514621 150.375 226.8828125 C150.63748535 227.70492218 150.8999707 228.52703186 151.17041016 229.37405396 C152.49674624 233.68214435 153.48623598 237.44069348 153 242 C149.84210526 247.57894737 149.84210526 247.57894737 147 249 C143.42163132 249.98331205 140.59723815 249.93175885 137 249 C132.559299 245.94966134 128.72531354 242.395262 124.81884766 238.69775391 C121.9420615 236.01249606 118.93925936 233.48105208 115.9375 230.9375 C114.76911848 229.93667959 113.60114752 228.93537968 112.43359375 227.93359375 C108.60077288 224.65434249 104.74845952 221.39838767 100.89428711 218.14428711 C96.91395784 214.78085767 92.95382175 211.39452993 89 208 C87.25294494 206.50255906 85.50564911 205.0053995 83.75830078 203.50830078 C82.57077039 202.4896167 81.3842715 201.46972908 80.19873047 200.44873047 C78.44789657 198.94155706 76.69309216 197.4391259 74.9375 195.9375 C74.41349609 195.48439453 73.88949219 195.03128906 73.34960938 194.56445312 C67.76649154 189.80471878 63.61585565 187.59651863 56.27734375 187.0078125 C54.75322456 186.85838519 53.229137 186.70863493 51.70507812 186.55859375 C49.33197246 186.33968785 46.95853873 186.12682034 44.58422852 185.92138672 C30.38028467 184.66350579 17.8890249 182.24952729 8 171 C1.68867626 162.23690889 -0.25786838 151.59776235 -2.0847168 141.16040039 C-2.27047272 140.1263205 -2.45622864 139.0922406 -2.64761353 138.02682495 C-3.25476587 134.63490829 -3.8527194 131.24146151 -4.44921875 127.84765625 C-4.87085595 125.46364808 -5.29255397 123.07965066 -5.71430969 120.69566345 C-6.5954489 115.70439627 -7.47118387 110.71221235 -8.34399414 105.71948242 C-9.45519124 99.36949535 -10.58681473 93.02333635 -11.72355938 86.67788029 C-12.60193064 81.75422093 -13.46555885 76.82805436 -14.32535744 71.90112114 C-14.73584998 69.56298797 -15.15158042 67.22576731 -15.57297325 64.88957405 C-22.65374306 25.53163954 -22.65374306 25.53163954 -15 14 C-10.69204229 8.40047243 -6.18326962 3.48799825 0 0 Z " fill="#FA7617" transform="translate(110,161)"/>
<path d="M0 0 C5.23123479 3.09888385 8.86507049 7.09291102 11.92578125 12.33984375 C13.60817823 19.06943167 13.37084429 25.27034631 9.87109375 31.33984375 C6.01698584 36.70208085 0.88334831 39.53714283 -5.38671875 41.08984375 C-12.32701912 41.97115173 -16.75719639 40.19380852 -22.38671875 36.08984375 C-27.30942952 31.52558279 -29.44777016 26.91077363 -29.76171875 20.27734375 C-29.60826226 14.20227213 -27.92529782 9.74033234 -23.703125 5.33203125 C-16.83129577 -0.78611348 -9.09230207 -3.46727722 0 0 Z " fill="#E4E8CF" transform="translate(264.38671875,222.91015625)"/>
<path d="M0 0 C4.52828232 2.83134837 7.69313643 7.10389216 10.32421875 11.6796875 C11.84923015 18.45751593 11.00905175 24.0619456 7.88671875 30.1796875 C4.10919184 36.13215415 -0.36198025 38.33936349 -7.11328125 40.1796875 C-12.34186315 41.1130227 -16.64200139 40.05842947 -21.22265625 37.515625 C-26.07379584 34.08775364 -29.25244021 29.80431111 -31.11328125 24.1796875 C-32.04308866 17.63188584 -31.5956392 12.39083697 -27.6796875 6.96875 C-20.12912614 -1.65508318 -10.99461809 -4.68330588 0 0 Z " fill="#E4E8CF" transform="translate(199.11328125,223.8203125)"/>
<path d="M0 0 C4.71037432 3.35911542 8.44737572 7.48101654 10.6875 12.875 C11.63006855 19.93330401 10.97076912 26.07143475 6.6875 31.875 C2.28159069 36.61506535 -3.04067364 39.95090936 -9.5625 40.375 C-15.18991374 40.13775659 -19.79585018 38.19741699 -24.3125 34.875 C-29.3590323 29.13380334 -31.7289393 23.71693434 -31.5859375 16.0234375 C-30.76629208 9.58336636 -27.09445346 4.95614984 -22.08984375 1.0625 C-15.59888762 -3.27431465 -6.79041895 -3.99209885 0 0 Z " fill="#E4E8CF" transform="translate(333.3125,224.125)"/>
</svg>
